<?xml version="1.0" encoding="utf-8"?>
<!-- Generator: Adobe Illustrator 22.1.0, SVG Export Plug-In . SVG Version: 6.00 Build 0)  -->
<svg version="1.1" id="环程似锦" xmlns="http://www.w3.org/2000/svg" xmlns:xlink="http://www.w3.org/1999/xlink" x="0px" y="0px"
	 viewBox="0 0 502.7 583.6" style="enable-background:new 0 0 502.7 583.6;" xml:space="preserve">
<style type="text/css">
	.st0{enable-background:new    ;}
	.st1{fill:#164DCA;}
</style>
<g class="st0">
	<path class="st1" d="M57.8,92.2c-0.3,4.5-0.5,9-0.6,13.3c-0.1,4.4-0.2,8.7-0.4,13.1l-2,42.3c-0.3,6.2-0.5,12.3-0.6,18.4
		c-0.1,6,0,12.1,0.4,18.1l0.3,17.9c-0.2,2.3-0.7,4.7-1.6,7.1c-0.9,2.3-2.3,4.4-4.1,6c-1.8,0.7-3.4,0.3-4.6-1.1
		c-1.3-1.4-2.3-2.7-3.1-3.9c-3-3.9-5.2-8.1-6.4-12.7c-1.3-4.6-1.6-9.4-1.1-14.2l3-17.1c0.5-4.4,0.9-8.8,1.3-13.2
		c0.3-4.4,0.7-8.9,1-13.5l2.3-48.4l-21.6,18.9c-1.3,0.8-2.7,1.9-4,3.3c-1.3,1.3-2.9,1.8-4.8,1.5c-0.7-0.5-1-1.1-0.9-1.8
		c0.1-0.7,0.3-1.3,0.6-2c0.3-0.7,0.7-1.3,1.1-2c0.4-0.7,0.7-1.3,0.9-1.8l4.5-7.6l7.5-11.3c3-5.7,5.8-11.8,8.3-18.1l7-19.1
		c1.3-3.5,2.6-7.1,3.8-10.7c1.2-3.6,2.2-7.3,3-11.2c0.7-2.5,1.4-5.1,2.3-7.7c0.8-2.6,2.4-4.7,4.8-6.4c1.7-1.3,3.4-1.6,5.3-0.8
		c1.8,0.8,3.4,1.9,4.8,3c1.3,1.7,2.8,3.4,4.4,5.2c1.6,1.8,3,3.6,4.3,5.5c1.3,1.9,2.3,3.9,3,6c0.8,2.1,1.1,4.3,1.1,6.7
		c-0.3,2.9-1.1,5.4-2.3,7.6c-2.9,5.2-5.6,10.4-8.3,15.5C63.4,82.1,60.7,87.1,57.8,92.2z M94.8,137c1.5-2.2,3-4.3,4.5-6.4
		c1.5-2.1,2.9-4.3,4.3-6.7l6.8-12.3c2.3-3.2,3.7-6.7,4.1-10.5c0.4-3.8,0.2-7.6-0.6-11.5l-1.3-10.1c-0.3-1.3-0.6-2.8-0.9-4.3
		s-0.2-3,0.1-4.5c0.8-2.2,2.3-3.5,4.5-4c1.2,0,2.4,0.3,3.6,0.9c1.3,0.6,2.5,1.1,3.6,1.6c1.2,0.5,2.4,0.9,3.6,1.1
		c1.3,0.3,2.6,0.2,3.9-0.1c2.8-1.3,5.5-2.8,8-4.4c2.5-1.6,5.2-3.1,8-4.4c1.3-1.2,2.7-1.4,4-0.8c1.3,0.7,1.6,1.9,0.8,3.5
		c-0.3,0.8-0.8,1.6-1.4,2.1c-0.6,0.6-1.1,1.1-1.6,1.6c-3.9,3.9-7.1,8.2-9.7,13.1c-2.6,4.9-4.2,10-4.9,15.4c-0.3,2-0.7,4.1-1.1,6.2
		c-0.4,2.1-1.3,3.9-2.6,5.4c-1.7,0.8-3.4,1.1-5,0.6c-1.7-0.4-3.3-0.9-4.8-1.4c-2.3,10.1-5.2,19.9-8.4,29.6
		c-3.3,9.7-6.8,19.3-10.7,28.8c-2.3,4.5-4.6,9-6.8,13.5c-2.2,4.5-4.7,8.8-7.5,13c-1.3,1.8-2.8,3.7-4.4,5.5c-1.6,1.8-3.5,3-5.7,3.5
		c-1.8,0-3.4-0.7-4.5-2c-1.2-1.3-2-2.8-2.5-4.3c-1-3.2-1.9-6.5-2.8-9.8c-0.8-3.4-1.1-6.7-0.8-10.1c0.2-0.8,0.5-1.7,0.9-2.5
		c0.4-0.8,0.9-1.7,1.4-2.5c3.7-6.4,6.3-13.1,7.9-20.1c1.6-7.1,2.5-14.2,2.8-21.4c0.3-7.2,0.1-14.5-0.5-21.9
		c-0.6-7.4-1.1-14.6-1.6-21.7c-0.3-3.5-0.5-7.1-0.6-10.6c-0.1-3.5,0.4-7,1.4-10.3c0.5-1.7,1.5-2.9,3-3.8c1.5-0.8,3.2-1.2,5-1
		c3.2,1,5.8,2.9,7.8,5.8c2,2.9,3.9,5.7,5.5,8.6c1.3,2.9,1.9,5.8,1.8,8.8c-0.2,3-0.4,6-0.8,8.8l-3,14.6c-0.7,3.4-1.3,6.6-1.8,9.8
		c-0.5,3.2-0.8,6.5-0.8,9.8L94.8,137z M175.9,112.6c2.8,7.4,6.7,14.2,11.4,20.5c4.8,6.3,9.6,12.5,14.5,18.5
		c3.5,4.4,7.5,8.2,11.8,11.5c4.4,3.3,9,6.3,13.8,8.9l9.8,5.5l5,2.8c0.3,0.5,0.6,1,0.8,1.4c0.2,0.4,0.3,0.9,0.3,1.4
		c-0.3,1-0.9,1.7-1.6,2.1c-0.8,0.4-1.6,0.7-2.6,0.9c-1,0.2-2.1,0.2-3.1,0.1c-1.1-0.1-2,0-2.6,0.1c-3.2-0.2-6.1,0.5-8.7,2.1
		c-2.6,1.6-4.6,3.7-6.2,6.4c-1,2.4-2.6,4.2-4.8,5.7c-2.2,1.4-4.4,1.5-6.8,0.1c-3.7-1.3-6.9-3.4-9.6-6.3c-2.7-2.9-5.2-5.7-7.5-8.6
		c-3.5-4.5-6.8-9.2-9.9-14c-3.1-4.8-5.8-9.9-8.2-15.2l-8-17.4c-4.4,7.7-9.2,15.1-14.6,22c-5.4,7-11.4,13.4-18.1,19.3
		c-3.9,3.4-7.5,6.8-11.1,10.3c-3.5,3.5-7.4,6.7-11.6,9.6c-0.8,0.5-1.7,0.7-2.6,0.5c-0.9-0.2-1.5-0.8-1.6-1.8
		c-0.2-1.2,0.1-2.2,0.9-3.1c0.8-0.9,1.5-1.9,2.1-2.9l4.5-6c8.4-11.6,15.4-23.8,21-36.8c5.6-12.9,10.9-26,16-39.3
		c2.8-9.6,5.4-19.2,7.7-28.8c2.3-9.7,3.2-19.5,2.9-29.6c-0.3-2.3-0.4-4.8-0.1-7.3c0.3-2.5,1.4-4.7,3.4-6.5c1.8-1.3,3.8-1.5,5.8-0.4
		c2,1.1,3.8,2.2,5.3,3.4c4.4,3.5,7.6,7.9,9.7,13.1c2.1,5.2,3.3,10.5,3.6,15.9c-0.2,4-0.8,8.2-2,12.6l-5.3,16.9L175.9,112.6z"/>
	<path class="st1" d="M301.1,125.9c-2.9-0.3-5.7-0.8-8.7-1.3c-2.9-0.5-5.6-1.8-7.9-3.8c-2-1.7-3.7-3.8-5-6.3
		c-1.3-2.5-1.4-5.2-0.3-8.1c0.5-2.3,1.8-4,4-5c2.8-1.3,5.8-2.5,8.8-3.4c3-0.9,6-1.9,9-2.9l1.8-21.4c-4-1.2-7.8-3.4-11.2-6.5
		c-3.4-3.2-5.3-7-5.7-11.3c0.8-3.4,2.9-5.7,6.3-7.2c3.4-1.4,6.5-2.6,9.6-3.4l5.8-1.5c3.9-1,8.3-1.5,13.3-1.5c5,0,9.3,0.2,12.8,0.5
		c2.2,0.3,4.4,0.8,6.5,1.5c2.2,0.7,4,1.8,5.5,3.5c1,1.8,1.5,3.9,1.5,6.3c0,2.4-0.7,4.4-2,6c-3.9,2.7-7.5,4.7-10.9,6
		c-3.4,1.3-7.3,2.9-11.7,4.8c1,1.3,2,2.7,3,4c1,1.3,1.8,2.9,2.3,4.5l2.3,8.8c3.2,0,6.2,0.7,9.2,2c2.9,1.3,5,3.6,6.2,6.8
		c0.8,2.9,0.7,5.8-0.4,8.9c-1.1,3.1-3.1,5.3-6.2,6.4l-7.8,3.5l-1.3,23.4c2-1.8,4.1-3.5,6.3-4.9c2.2-1.4,4.4-3,6.5-4.7l4.8-4
		c1.3-0.7,2.8-1.4,4.3-2.1c1.5-0.8,3-1.1,4.5-1.1c1,0.8,1.4,2,1.3,3.5c-0.2,1.5-0.7,2.7-1.5,3.5l-5.3,6.8c-1.8,2.4-3.7,4.5-5.7,6.5
		c-1.9,2-3.9,4.1-5.9,6.3L325.2,166l-14.1,15.6c-1.8,2.4-3.6,4.7-5.4,6.9c-1.8,2.3-3.4,4.7-4.9,7.2c-0.8,1-1.7,2.2-2.5,3.7
		c-0.8,1.4-1.8,2.7-2.8,3.9c-1,1.2-2.1,2.1-3.3,2.9c-1.2,0.8-2.6,1.1-4.3,0.9c-3.5-1.5-6.8-3.9-9.8-7.1c-3-3.2-4.7-6.8-5-10.8
		c0-3,0.9-5.8,2.6-8.3c1.8-2.5,3.8-4.7,6.2-6.5l17.6-14.4L301.1,125.9z M392.1,104.3c-0.5-1.8-1.1-3.8-1.9-5.8
		c-0.8-2-1.3-4.1-1.6-6.2c-0.3-2.1-0.4-4.2-0.1-6.2c0.3-2,1.1-3.9,2.6-5.5c2.2-1.8,4.6-2.3,7.2-1.3c2.6,1,4.8,2.4,6.7,4l2.8-8.3
		l1.8-8.8c-7.2,1.7-14.4,3.3-21.6,4.9c-7.2,1.6-14.4,3.1-21.6,4.4c-1.8,0.2-3.7,0-5.7-0.6c-1.9-0.6-3.6-1.6-4.9-3.1
		c-1.8-2.3-3.5-4.9-5-7.6c-1.5-2.7-2.3-5.5-2.5-8.6c-0.3-2,0.1-3.8,1.4-5.3c1.3-1.5,3-2.3,5.2-2.3c8.2-1.7,16.4-2.8,24.5-3.3
		c8.1-0.5,16.3-1,24.5-1.5c2.8-0.2,5.9-0.4,9.3-0.8c3.3-0.3,6.8-0.7,10.3-1c3.5-0.3,7-0.7,10.3-1c3.3-0.3,6.4-0.7,9.3-1l13.6-2.3
		c1.5-0.3,3.1-0.5,4.6-0.5c1.6,0,3.1,0.2,4.6,0.5c3,0.8,5.5,2.9,7.5,6c2,3.2,3.3,6.3,3.8,9.3c0.2,2.5-0.5,5-2.1,7.4
		c-1.6,2.4-3.7,3.9-6.4,4.4c-3.2-0.2-6.6-0.5-10.3-0.9c-3.7-0.4-7.4-0.8-11.2-1.1c-3.8-0.3-7.5-0.5-11.2-0.4
		c-3.7,0.1-7.1,0.5-10.3,1.1c2,4.5,3.4,9.3,4.1,14.4c0.8,5,0,10-2.1,14.9l-2.8,7.6c8,11.6,17.4,22,28.1,31.2
		c10.7,9.2,22.5,16.8,35.4,22.7c1.3,0.3,2.7,1,4.1,2c1.4,1,1.8,2.4,1.1,4c-0.3,0.8-0.8,1.4-1.3,1.6c-0.5,0.3-1.1,0.5-1.8,0.9
		l-6.5,0.5c-3,0-5.5,1-7.4,3c-1.9,2-3.8,4.2-5.5,6.4c-1.8,2.3-3.6,4.4-5.7,6.3c-2,1.9-4.6,2.8-7.8,2.6c-5.4-0.8-9.8-3.3-13.4-7.3
		c-3.6-4-6.8-8.1-9.7-12.1l-10.1-16.1c-0.2,9.2,0,18.5,0.5,27.7c0.5,9.2,0.4,18.5-0.3,27.7c-0.5,3.7-1,7.4-1.5,11.1
		c-0.5,3.7-1.8,7.1-4,10.3c-3,3-6.4,5.9-10.1,8.7c-3.7,2.8-7.7,4.3-12.1,4.7c-1.8-0.2-3.3-0.8-4.4-1.9c-1.1-1.1-1.9-2.4-2.5-3.8
		c-0.6-1.4-0.9-3-1-4.7c-0.1-1.7,0-3.3,0.4-4.8l2.3-12.1c0.8-7.9,1.4-15.7,1.8-23.4c0.3-7.7,0.6-15.5,0.8-23.4v-16.6
		c-6.2,8.6-12.9,16.6-20.2,24.2c-7.3,7.6-15.5,13.9-24.8,19.1L335,197c-1,0.7-2.1,1.3-3.1,1.9c-1.1,0.6-2.3,1.1-3.6,1.4
		c-0.7,0-1.1-0.3-1.4-0.9c-0.3-0.6-0.5-1.2-0.6-1.9c0.7-1.8,1.9-3.5,3.6-4.9c1.8-1.4,3.3-2.9,4.6-4.4c10.4-10.6,19.8-22,28.3-34.1
		c8.5-12.2,16.5-24.6,24-37.4L392.1,104.3z"/>
</g>
<g class="st0">
	<path class="st1" d="M114.6,455.9c-0.2,0.7-0.5,1.9-1,3.5c-0.5,1.7-1.1,3.5-1.9,5.5c-0.8,2-1.6,4.2-2.6,6.4s-2,4.3-3,6.2l-5.5,11.1
		c-1.2,2.4-2.3,4.6-3.5,6.8c-2.2,4.2-4.1,8.1-5.8,11.6c-0.8,1.7-1.7,3.4-2.5,5c-0.8,1.7-1.7,3.2-2.5,4.5c-2.2,4-4.3,6.4-6.3,7.1
		c-4.4,2-8.8,0.5-13.3-4.5c-2.3-2.4-4.1-4.3-5.4-5.8c-1.3-1.5-2.1-2.9-2.4-4.3c-0.7-2.7-0.3-5,1.3-6.8c0.5-0.5,1.7-1,3.5-1.5
		c0.8-0.3,2-1.1,3.5-2.3c0.3-2,0.5-4,0.5-6s0-3.8,0-5.3l0.3-31.2c-6,3.4-10.6,4.9-13.6,4.5c-3.2,0-6.7-1.6-10.6-4.8
		c-3.9-3-5.9-5.5-6.3-7.3c-0.3-1.8,0.2-3.4,1.5-4.8c0.8-0.8,2.3-1.5,4.5-2c0.8-0.3,2.4-0.8,4.6-1.4c2.3-0.6,5.1-1.5,8.4-2.6l11.6-4
		v-17.6c-3.2-0.3-5.2-0.9-6-1.8c-1-0.7-1.9-2.2-2.8-4.5l-3.5-8.8c-1.5,1.9-3.4,4-5.5,6.4c-2.2,2.4-4.7,5.3-7.5,8.4
		c-5.4,5.9-9,9.6-10.8,11.1l-11.6,8.8c-3.4,3-5.4,3.9-6,2.8c-0.7-1-0.6-2.6,0.3-4.8l5.3-9.1l10.3-15.9l12.6-20.7
		c3.7-6.4,6.5-11.2,8.4-14.5c1.9-3.3,3.1-5.2,3.4-5.9l10.8-19.6c5.4-8.9,8.6-14.6,9.8-17.1c1-2.3,2.2-3.9,3.5-4.8
		c1.2-0.7,3.2-0.4,6,0.8c0.8,0.3,1.8,1,2.8,1.9c1,0.9,2.2,2.1,3.5,3.4c2.2,2.7,3.7,6.1,4.5,10.3l0.8,3c2,0.3,4,0.8,5.9,1.3
		c1.9,0.5,3.8,1,5.7,1.5c3.7,1.3,6.8,3.6,9.3,6.8c2.7,3.2,4,6.4,4,9.6c-0.3,3.2-3.6,5.4-9.8,6.5c-2.5,0.5-5.1,0.3-7.8-0.8
		c-1.3-0.5-3-1.3-5-2.4c-2-1.1-4.4-2.5-7.3-4.2c-2.5,1.8-4.8,3.7-6.8,5.7c-2,1.9-3.9,3.8-5.8,5.7c-3.4,3.7-9,10.3-16.8,19.9
		c5.4-1,9.9-2,13.7-2.9c3.8-0.9,6.6-1.9,8.4-2.9c4.4-2.2,7.1-3.3,8.3-3.3c1.5-0.2,3.6,0.6,6.3,2.3c2.7,1.9,4.3,4.5,4.8,8.1
		c0.8,3.9,1,6.1,0.5,6.8c-0.3,1-2.7,2.4-7,4.3l-8.5,3.3c0,0.8,0,2,0.1,3.4c0.1,1.4,0.1,2.9,0.1,4.5c0,1.6,0,3.1,0.1,4.5
		c0.1,1.4,0.1,2.5,0.1,3.1c2.8-1,5.7-1.6,8.7-1.9c2.9-0.3,4.9-0.1,5.9,0.4c2.2,0.7,4,2.2,5.5,4.5c0.8,1.2,1.6,2.6,2.4,4.4
		c0.8,1.8,1,3.1,0.9,3.9c-0.2,0.8-0.8,1.8-1.9,2.8c-1.1,1-2.7,1.8-4.9,2.3l-8,2.5l-8.5,2.3c0,0.3,0,1.6-0.1,3.7
		c-0.1,2.1-0.1,4.6-0.1,7.6c0,2.9,0,6,0,9.3s0,6.2,0,8.7l0.8-1c0.2-0.3,0.8-1.1,2-2.4c1.2-1.3,2.4-2.6,3.8-3.9l5-5.5
		c3.5-3.4,6.5-6.2,9-8.4c2.5-2.3,3.9-3.4,4.3-3.4c0.5-0.2,0.9-0.1,1.3,0.3C115.1,452.6,115.1,453.9,114.6,455.9z M138.2,441.5
		c2.3-0.7,4.8-1.3,7.3-1.9c2.5-0.6,4.9-1.1,7.3-1.6c0-1.3,0-2.6-0.1-3.8c-0.1-1.2,0-2.4,0.1-3.8v-8.3c-2.5,0.8-4.7,2.2-6.5,4
		c-1.8,1.9-3.9,3.4-6.3,4.5c-4-1-6.7-3.4-8.2-7.2c-1.4-3.8-2.3-7.4-2.6-11l-1-9.3l-2.3-13.9l-1.5-13.9l-1.3-8.6
		c-0.2-0.5-0.3-1.3-0.3-2.3c0-0.8,0-1.8-0.1-3c-0.1-1.2-0.1-2.3,0-3.5c0.1-1.2,0.3-2.2,0.8-3c0.4-0.8,1.2-1.4,2.4-1.8l8.5-0.8
		c3.5-3.9,6.1-8.2,7.8-13.1c1.7-4.9,3.1-9.7,4.3-14.6c0-2.3,0.8-4.4,2.3-6.2c1.5-1.8,3.5-2.3,6-1.6c3.4,1,6.4,2.6,9.2,4.9
		c2.8,2.3,5.2,4.8,7.4,7.7c1.3,2.4,2.1,4.9,2.3,7.7c0.2,2.8-0.6,5.3-2.3,7.4c-2,2-4.2,3.7-6.5,5c-2.3,1.3-4.8,2.6-7.4,3.7
		c-2.6,1.1-5.2,2.1-7.8,3c-2.6,0.9-5.1,2-7.4,3.1c0.7,1.7,1.3,3.3,1.9,4.8c0.6,1.5,1.1,3.2,1.6,5l1.5,10.8c2.5-0.5,5.1-1.1,7.7-1.8
		c2.6-0.7,5.2-1.5,7.7-2.5c1.5-0.3,3-0.8,4.5-1.5c1.5-0.7,3.1-0.8,4.8-0.5c1.7,0.5,3.2,1.3,4.5,2.5c1.3,1.2,2.4,2.4,3.3,3.8l1.3,3.8
		l3.5-8.8l4.8-16.4c-1.8,0.8-3.8,1.6-5.8,2.3c-2,0.7-3.9,1.4-5.8,2.3l-14.6,6.5c-1.8,0.7-3.9,1.1-6,1.4c-2.2,0.3-4-0.4-5.5-1.9
		c-1.3-1.8-1.6-3.9-0.6-6c0.9-2.2,2.3-3.9,4.1-5c1.3-0.8,2.8-1.5,4.5-2c1.7-0.5,3.3-0.9,4.8-1.3l13.6-4.3c2.8-0.8,5.6-1.6,8.3-2.4
		c2.7-0.8,5.4-1.8,8-3.1c2.2-1.7,4.6-2.3,7.2-2c2.6,0.3,4.9,1.4,6.9,3.3c2.7,2.4,5,5,7,7.8c2,2.9,3.7,5.9,5,9.1c0.3,2,0,3.9-1,5.7
		c-1,1.8-1.9,3.5-2.8,5.2c-3.4,5.9-6.7,11.8-10.2,17.6c-3.4,5.9-6.7,11.8-9.7,17.9c-1,2.4-2.5,4.6-4.4,6.8c-1.9,2.2-4.4,3.3-7.4,3.3
		c-1.8,0-3.4-0.3-4.8-1l-5-3l-1.5-1l-3.5,1c0.8,1.3,1.8,2.7,2.8,4c1,1.3,1.8,2.8,2.3,4.3l2.5,7.1c1.5-0.3,3.1-0.7,4.6-1.1
		c1.6-0.4,3.1-1,4.4-1.9l8-6c1,0,2,0.2,3,0.6c1,0.4,1.9,0.9,2.8,1.4c3.4,2.7,6.5,5.6,9.4,8.7c2.9,3.1,5.6,6.5,7.9,10.2
		c1.3,3.7,1.9,7.5,1.6,11.5c-0.3,3.9-0.3,7.9-0.1,11.7c-0.5,5.9-1.1,11.8-1.9,17.9c-0.8,6-3.1,11.4-6.9,16.1c-2,2.4-4.4,4-7.2,5
		c-2.8,1-5.6,1.9-8.4,2.8c-1.8,0.5-3.9,0.8-6,1c-2.2,0.2-4-0.4-5.5-1.8c-0.7-1.2-0.9-2.3-0.8-3.5c0.2-1.2,0.4-2.3,0.8-3.5
		c0.3-1.2,0.6-2.3,0.9-3.5c0.3-1.2,0.3-2.3,0.1-3.5l-6.8-6.3c-0.8,7.6-1.6,15.1-2.1,22.7c-0.6,7.6-2.3,14.9-5.2,22.2
		c-0.8,2-1.9,3.9-3.1,5.5c-1.3,1.7-3,2.9-5.2,3.5c-1.5,0.5-2.6,0-3.1-1.5c-0.6-1.5-1.1-2.8-1.6-3.8c-0.8-1.8-1.5-3.8-2-5.8
		c-0.5-2-0.9-4-1.3-6l-0.8-8.3c-0.3-2.7-0.7-5.3-1-7.9c-0.3-2.6-0.5-5.2-0.5-7.9l1-45.1c-1.3,0.5-2.6,1.1-3.9,1.6
		c-1.3,0.6-2.6,0.9-3.9,0.9l-8.3,0.5l-1.3,22.4c-0.2,3.4-0.3,6.7-0.5,9.9c-0.2,3.3-0.8,6.5-1.8,9.7c-0.8,1.8-1.8,3.7-2.9,5.7
		c-1.1,1.9-2.8,3.1-5.2,3.4c-1.8-0.3-3.3-1.3-4.3-3c-1-1.7-1.7-3.4-2-5c-0.8-3.5-1.2-7.1-1.1-10.8c0.1-3.7,0.3-7.3,0.6-10.8
		c0.3-6.4,1-12.7,2.1-19c1.1-6.3,2.1-12.6,3.1-19c-0.2-1.5,0.1-2.8,0.9-3.8c0.8-1,1.7-1.8,2.8-2.3c1.1-0.5,2.3-0.8,3.6-0.8
		c1.3,0,2.6,0.3,3.8,1L138.2,441.5z M179.2,388.9c-5.4,1-10.6,1.9-15.8,2.6c-5.2,0.8-10.5,1.3-15.8,1.6c0.2,1.7,0.4,3.4,0.6,5
		c0.3,1.7,0.5,3.4,0.9,5.3c7.7-1.8,15.7-2.9,24.1-3.3L179.2,388.9z M190.5,444.8c-1.8,0-3.6,0-5.4,0.1c-1.8,0.1-3.6,0.2-5.4,0.4
		l-0.5,9.1l-0.5,9.6c0,1,0,2-0.1,3c-0.1,1,0,1.9,0.1,2.8v8.6c1.7,0.3,3.4,0.7,5.3,1.1c1.8,0.4,3.6,0.2,5.3-0.6
		c1.2-2.2,1.7-4.5,1.5-6.9c-0.2-2.4-0.2-4.8,0-7.2v-11.1L190.5,444.8z"/>
	<path class="st1" d="M343.3,398.2l-0.5,18.9c5.4,1.2,9.8,4,13.4,8.6c3.6,4.5,5.8,9.3,6.7,14.4c0.3,2-0.3,3.7-1.9,5
		c-1.6,1.3-3.3,1.9-5.2,1.8c-2.5-0.3-4.8-1.2-6.8-2.6c-2-1.4-3.9-2.8-5.8-4.2l-1,47.9c-0.3,3.5-0.5,7.3-0.5,11.2
		c0,3.9-0.3,7.8-0.8,11.5c-0.5,3.7-1.5,7.2-2.9,10.5c-1.4,3.3-3.7,6.2-6.9,8.7l-11.1,6.8c-1,0.8-2.2,1.2-3.5,1
		c-1.3-0.2-2.1-1-2.3-2.5c-0.8-3.7-1.1-7.4-0.9-11.1c0.3-3.7,0.2-7.4-0.1-11.1l0.5-23.9l0.5-34.3c-5.9,5.4-11.9,10.3-18.1,14.9
		c-6.2,4.5-12.5,9-18.9,13.3c-1,0.8-2.1,1.7-3.3,2.6c-1.2,0.9-2.5,1.2-4,0.9c-1.7,0-2.5-0.6-2.4-1.9c0.1-1.3,0.5-2.4,1.4-3.4
		c1.3-1.8,2.6-4,3.8-6.5c1.5-2.9,3.1-5.6,4.8-8.2c1.7-2.6,3.3-5.2,5-7.9c5.4-7.7,10.1-15.8,14.1-24.2c4-8.4,7.7-17,11.1-25.7
		c-1.8,0.3-3.7,0.9-5.5,1.6c-1.8,0.8-3.7,1.5-5.7,2.1c-1.9,0.7-3.8,1.2-5.7,1.6c-1.8,0.4-3.7,0.5-5.5,0.1c-2-0.3-3.8-1.2-5.3-2.6
		c-1.5-1.4-2.9-2.8-4.3-4.2c-1.3-1.5-2.6-3.1-3.9-4.7c-1.3-1.6-2-3.4-2.1-5.4c0-1.2,0.2-2.3,0.5-3.5c0.3-1.2,1-2.2,2-3
		c1.8-1,3.7-1.7,5.7-2c1.9-0.3,3.8-0.7,5.7-1c5-0.8,10.1-1.9,15.1-3.3c5-1.3,10.1-2.7,15.1-4c0.8-2.9,1.3-5.8,1.4-8.8
		c0.1-3,0.5-6,1.4-9.1l4-6c-4.2,0.3-8.4,0.7-12.6,1.1c-4.2,0.4-8.3,1.1-12.3,1.9c-1.3,0.3-2.8,0.7-4.4,1c-1.6,0.3-3.1,0.2-4.4-0.5
		c-0.3-0.3-0.7-0.6-1.1-0.9c-0.4-0.3-0.5-0.6-0.4-1.1c0.5-0.5,1-0.9,1.6-1.3c0.6-0.3,1.3-0.7,2.1-1l8.3-3.8l19.6-9.1
		c2.7-1.3,5.4-2.9,8.2-4.8c2.8-1.8,4.9-4.2,6.4-7.1l2.5-5c1.2-2,3.1-3,5.8-3c2,0.5,3.8,1.4,5.3,2.6c1.5,1.3,2.8,2.7,4,4.4
		c1.2,1.7,2.3,3.4,3.3,5.3c1,1.8,2,3.6,3,5.3c1.3,2.4,2.3,5,2.9,7.8c0.6,2.9,0,5.5-1.6,7.8c-1.5,2.4-3.6,3.8-6.3,4.3l-11.6-1h-7.5
		c0.7,1.3,1.3,2.7,2,4.2c0.7,1.4,1.5,2.7,2.5,3.9l3.5,5l1.3,2.8c2.7-0.2,5.4-0.7,8-1.6c2.7-0.9,5.4-1.3,8.3-1.1
		c3.2,1.3,5.8,3.7,7.9,7.2c2.1,3.4,2.6,6.8,1.4,10.2c-0.7,0.8-1.4,1.5-2.3,1.9c-0.8,0.4-1.7,0.8-2.5,1.1l-10.6,2.8l-7.5,2.5H343.3z
		 M399.1,498l0.8-20.2l0.3-6.8c-2.7,0.3-5.3,0.9-7.8,1.6s-4.9,1.5-7.3,2.1c-1.3,0.2-2.6,0-3.9-0.5c-1.3-0.5-2.4-1.2-3.4-2l-6.5-5
		c-1.8-0.8-2.9-2.1-3.1-3.9c-0.3-1.8,0.5-3.3,2.4-4.7c2-1.7,4.2-2.9,6.7-3.8c2.4-0.8,4.9-1.5,7.5-2c2.6-0.5,5.2-1,7.8-1.4
		c2.6-0.4,5.2-1,7.7-1.9c-0.2-1.3-0.3-2.7-0.4-4c-0.1-1.3-0.1-2.8-0.1-4.3v-4.5c-1.8,0.3-3.6,0.6-5.3,0.9c-1.7,0.3-3.4,0.7-5,1.4
		c-2,1-4.1,1.6-6.2,1.8c-2.1,0.2-4-0.7-5.7-2.5l-6.8-5.5c-1.8-0.8-2.9-2.1-3.1-3.9s0.5-3.2,2.4-4.4c2.3-2.2,5.2-3.7,8.4-4.4
		c3.3-0.8,6.5-1.6,9.7-2.4l15.6-2c7.5-1.2,15.2-2.5,22.9-3.9c7.7-1.4,15.4-1.8,23.1-1.1c2,0.5,3.8,1.6,5.3,3.1
		c1.5,1.6,2.3,3.4,2.5,5.4c0.3,2-0.2,3.8-1.6,5.4c-1.4,1.6-2.9,2.8-4.4,3.7c-1.8,1-3.8,1.7-5.9,2c-2.1,0.3-4.1,0.6-6.2,0.8
		l-14.8,1.3l1,6.8l0.8,7.3c1,0,2,0,3.1-0.1c1.1-0.1,2.2-0.2,3.4-0.4l4.3-0.5c5-0.3,9.7,0.8,14.1,3.5c1.3,1,2.7,2.2,4.1,3.7
		c1.4,1.4,2,3.1,1.6,4.9c-1.3,3.2-3.7,5.2-7,6.2c-3.4,0.9-6.5,1.5-9.3,1.6l-13.3,1c-0.2,2.4-0.3,4.7-0.5,6.9c-0.2,2.3-0.2,4.6,0,6.9
		v16.1c5.7-0.5,11.4-1,17.2-1.4c5.8-0.4,11.6-1,17.5-1.9c4,0.3,7.9,1.7,11.6,4.2c3.7,2.4,6.3,5.6,7.8,9.4c0.7,1.7,0.9,3.3,0.6,4.8
		s-0.9,2.9-1.9,4c-1,1.2-2.3,2.1-3.8,2.8c-1.5,0.7-3.1,1-4.8,1c-5.9,0.2-11.6-0.2-17.1-1c-5.5-0.8-11.1-1-16.8-0.5
		c-5.4,0.7-10.7,1.1-16.1,1.4c-5.4,0.3-10.7,0.5-16.1,0.9c-5.4,0.3-10.7,0.9-16,1.6c-5.3,0.8-10.4,2-15.5,3.7
		c-2.9,0.8-5.7,1.6-8.7,2.4c-2.9,0.8-5.7,0.2-8.2-1.6c-1.5-1-3.1-2.1-4.9-3.3c-1.8-1.2-3.3-2.5-4.6-3.9c-1.3-1.4-2.4-3-3.1-4.8
		c-0.8-1.8-0.9-3.7-0.4-5.7c0.8-1.7,2-3,3.4-4c1.4-1,3.1-1.8,4.9-2.3c4.4-0.8,8.8-1.5,13.2-1.9c4.4-0.4,8.8-0.8,13.2-1.1l9.8-0.3
		L399.1,498z M401.1,397c-1.5,2.4-2.9,4.7-4.1,7.2c-1.3,2.4-3.1,4.4-5.4,5.9c-1.5,1.2-3.1,1.3-4.6,0.5c-1.6-0.8-2.7-2-3.4-3.5
		c-0.5-0.7-0.8-1.4-0.9-2.1c-0.1-0.8-0.2-1.6-0.4-2.4l-2-13.9c-0.5-2.7-0.9-5.4-1.1-8.2c-0.3-2.8-0.5-5.6-0.6-8.4l-1.3-19.1
		l-1.5-12.1c0-1,0-2.1,0-3.3c0-1.2,0.4-2.2,1.3-3c0.8-0.8,1.8-1.2,3-1.1c1.2,0.1,2.3,0.3,3.5,0.6c0.8,0.3,1.6,0.8,2.4,1.5
		c0.8,0.7,1.5,1.3,2.4,2c1.8,1.7,4,2.7,6.4,3.1c2.4,0.4,4.8,0.5,7.2,0.1c3-0.3,6.1-0.8,9.2-1.3c3.1-0.5,6.2-0.7,9.4-0.5
		c0.8,0,1.8,0,2.8,0.1c1,0.1,1.9-0.2,2.8-0.9l0.5-5.5c0.3-1.7,1.3-2.7,3-3.1c1.7-0.4,3.3-0.5,4.8-0.4c4.2,0.5,7.9,2.1,11.1,4.7
		c3.2,2.6,5.9,5.5,8.3,8.7c2,1.9,3.1,4.1,3.3,6.7c0.2,2.6-0.3,5.1-1.5,7.4c-1.8,4-3.4,7.6-4.5,10.8l-4,12.3
		c-1.5,3.4-3.1,6.7-4.6,10.1c-1.6,3.4-3.6,6.4-6.2,9.1c-1.5,1.3-3.3,1.9-5.3,1.8c-2-0.2-3.8-0.8-5.3-1.8l-6.5-4.3
		c-3-0.3-6-0.2-9,0.5C406.9,395.9,404,396.5,401.1,397z M399.9,354.1l1,26.2l9.6-1c1.3-0.2,2.7-0.3,4-0.4c1.3-0.1,2.5-0.5,3.5-1.4
		c1-1.8,1.7-3.9,2.1-6c0.4-2.2,1-4.4,1.6-6.8l2.3-12.8c-3.5-0.2-7,0.3-10.3,1.4c-3.4,1.1-6.7,1.7-10.1,1.9L399.9,354.1z"/>
</g>
</svg>
